<?xml version="1.0" encoding="UTF-8"?>
<svg xmlns="http://www.w3.org/2000/svg" xmlns:xlink="http://www.w3.org/1999/xlink" width="200px" height="64px" viewBox="0 0 199 64" version="1.1">
<g id="surface1">
<path style=" stroke:none;fill-rule:nonzero;fill:rgb(23.137255%,23.137255%,23.137255%);fill-opacity:1;" d="M 0 0.167969 C 65.671875 0.167969 131.339844 0.167969 199 0.167969 C 199 21.175781 199 42.1875 199 63.832031 C 133.328125 63.832031 67.660156 63.832031 0 63.832031 C 0 42.824219 0 21.8125 0 0.167969 Z M 0 0.167969 "/>
<path style=" stroke:none;fill-rule:nonzero;fill:rgb(69.01961%,65.882355%,9.411765%);fill-opacity:1;" d="M 102.121094 41.078125 C 102.539062 41.078125 102.957031 41.078125 103.386719 41.078125 C 104.53125 41.074219 105.675781 41.078125 106.816406 41.078125 C 108.058594 41.078125 109.296875 41.078125 110.539062 41.078125 C 112.679688 41.078125 114.824219 41.078125 116.964844 41.082031 C 120.0625 41.085938 123.164062 41.085938 126.257812 41.085938 C 131.285156 41.085938 136.3125 41.089844 141.339844 41.09375 C 146.222656 41.09375 151.101562 41.101562 155.980469 41.101562 C 156.28125 41.101562 156.582031 41.101562 156.894531 41.101562 C 158.40625 41.101562 159.917969 41.105469 161.429688 41.105469 C 173.953125 41.109375 186.476562 41.113281 199 41.121094 C 199 41.574219 199 42.027344 199 42.496094 C 162.992188 42.496094 126.988281 42.496094 89.894531 42.496094 C 89.894531 42.382812 89.894531 42.269531 89.894531 42.152344 C 91.140625 42.152344 92.386719 42.152344 93.667969 42.152344 C 93.667969 41.921875 93.667969 41.699219 93.667969 41.460938 C 96.492188 41.183594 99.285156 41.070312 102.121094 41.078125 Z M 102.121094 41.078125 "/>
<path style=" stroke:none;fill-rule:nonzero;fill:rgb(94.509804%,94.509804%,94.509804%);fill-opacity:1;" d="M 42.140625 24.988281 C 43.402344 25.734375 44.367188 26.332031 44.949219 27.699219 C 45.246094 29.746094 45.246094 31.527344 44.367188 33.417969 C 42.765625 35.070312 41.398438 35.554688 39.15625 35.699219 C 37.277344 35.664062 36.148438 34.957031 34.695312 33.785156 C 33.585938 32.339844 33.714844 30.605469 33.777344 28.855469 C 34.046875 27.207031 34.6875 26.265625 36.027344 25.289062 C 37.933594 24.128906 40.066406 24.375 42.140625 24.988281 Z M 42.140625 24.988281 "/>
<path style=" stroke:none;fill-rule:nonzero;fill:rgb(95.294118%,95.294118%,95.294118%);fill-opacity:1;" d="M 130.378906 24.601562 C 132.03125 25.382812 133.523438 26.644531 134.15625 28.386719 C 134.476562 30.320312 134.375 31.75 133.230469 33.378906 C 132.398438 34.429688 131.667969 34.886719 130.378906 35.269531 C 129.296875 35.371094 129.296875 35.371094 128.148438 35.375 C 127.582031 35.382812 127.582031 35.382812 127 35.394531 C 125.792969 35.253906 125.171875 34.964844 124.203125 34.238281 C 122.9375 32.484375 122.558594 31.214844 122.832031 29.078125 C 123.089844 27.554688 123.386719 26.667969 124.546875 25.675781 C 126.429688 24.339844 128.101562 24.296875 130.378906 24.601562 Z M 130.378906 24.601562 "/>
<path style=" stroke:none;fill-rule:nonzero;fill:rgb(97.647059%,97.647059%,97.647059%);fill-opacity:1;" d="M 107.050781 21.160156 C 107.953125 21.160156 108.859375 21.160156 109.792969 21.160156 C 109.792969 23.09375 109.792969 25.019531 109.792969 27.011719 C 111.832031 27.011719 113.871094 27.011719 115.972656 27.011719 C 115.972656 25.078125 115.972656 23.148438 115.972656 21.160156 C 116.875 21.160156 117.78125 21.160156 118.714844 21.160156 C 118.714844 25.816406 118.714844 30.472656 118.714844 35.269531 C 117.804688 35.269531 116.902344 35.269531 115.972656 35.269531 C 115.972656 33.113281 115.972656 30.953125 115.972656 28.730469 C 113.933594 28.730469 111.894531 28.730469 109.792969 28.730469 C 109.792969 30.886719 109.792969 33.046875 109.792969 35.269531 C 108.890625 35.269531 107.980469 35.269531 107.050781 35.269531 C 107.050781 30.613281 107.050781 25.957031 107.050781 21.160156 Z M 107.050781 21.160156 "/>
<path style=" stroke:none;fill-rule:nonzero;fill:rgb(93.333334%,93.333334%,93.333334%);fill-opacity:1;" d="M 92.574219 24.835938 C 93.925781 25.652344 94.878906 26.53125 95.382812 28.042969 C 95.382812 28.949219 95.382812 29.859375 95.382812 30.796875 C 92.890625 30.796875 90.398438 30.796875 87.835938 30.796875 C 88.171875 31.59375 88.515625 32.386719 88.867188 33.203125 C 89.457031 33.214844 90.050781 33.21875 90.644531 33.226562 C 91.140625 33.230469 91.140625 33.230469 91.644531 33.238281 C 92.589844 33.207031 93.4375 33.070312 94.351562 32.859375 C 94.578125 33.3125 94.808594 33.769531 95.039062 34.238281 C 92.996094 35.546875 91.265625 35.839844 88.867188 35.613281 C 86.914062 34.9375 85.667969 33.675781 84.746094 31.828125 C 84.335938 27.910156 84.335938 27.910156 85.496094 26.472656 C 87.753906 24.511719 89.644531 24.121094 92.574219 24.835938 Z M 92.574219 24.835938 "/>
<path style=" stroke:none;fill-rule:nonzero;fill:rgb(93.725491%,93.725491%,93.725491%);fill-opacity:1;" d="M 153.851562 24.992188 C 154.996094 25.785156 155.65625 26.441406 156.28125 27.699219 C 156.453125 28.730469 156.453125 28.730469 156.453125 30.796875 C 153.851562 30.796875 151.25 30.796875 148.5625 30.796875 C 149.132812 32.085938 149.132812 32.085938 149.9375 33.203125 C 150.601562 33.230469 151.265625 33.230469 151.933594 33.226562 C 152.292969 33.222656 152.65625 33.21875 153.03125 33.214844 C 153.367188 33.210938 153.707031 33.207031 154.050781 33.203125 C 154.507812 33.203125 154.960938 33.203125 155.425781 33.203125 C 155.425781 33.660156 155.425781 34.113281 155.425781 34.582031 C 153.179688 35.605469 150.980469 35.453125 148.585938 35.035156 C 146.9375 34.324219 146.164062 33.097656 145.476562 31.480469 C 145.238281 29.800781 145.296875 28.429688 146.011719 26.878906 C 148.105469 24.617188 150.914062 23.601562 153.851562 24.992188 Z M 153.851562 24.992188 "/>
<path style=" stroke:none;fill-rule:nonzero;fill:rgb(94.509804%,94.509804%,94.509804%);fill-opacity:1;" d="M 51.46875 24.601562 C 51.476562 24.84375 51.484375 25.089844 51.492188 25.34375 C 51.53125 26.453125 51.574219 27.558594 51.613281 28.664062 C 51.628906 29.050781 51.640625 29.4375 51.65625 29.835938 C 51.679688 30.390625 51.679688 30.390625 51.699219 30.953125 C 51.710938 31.292969 51.722656 31.632812 51.738281 31.984375 C 51.777344 32.902344 51.777344 32.902344 52.152344 33.890625 C 53.171875 33.554688 54.191406 33.210938 55.242188 32.859375 C 55.355469 30.246094 55.464844 27.636719 55.582031 24.945312 C 56.488281 24.945312 57.394531 24.945312 58.328125 24.945312 C 58.335938 25.1875 58.34375 25.433594 58.355469 25.679688 C 58.394531 26.785156 58.433594 27.886719 58.476562 28.988281 C 58.492188 29.371094 58.503906 29.753906 58.519531 30.148438 C 58.53125 30.515625 58.550781 30.882812 58.5625 31.261719 C 58.574219 31.601562 58.585938 31.941406 58.601562 32.289062 C 58.664062 33.097656 58.789062 33.804688 59.011719 34.582031 C 57.683594 35.46875 57.121094 35.171875 55.582031 34.921875 C 55.246094 35.039062 54.902344 35.152344 54.550781 35.269531 C 53.820312 35.335938 53.082031 35.375 52.347656 35.398438 C 51.957031 35.417969 51.566406 35.433594 51.167969 35.449219 C 50.09375 35.269531 50.09375 35.269531 49.347656 34.527344 C 48.621094 33.394531 48.558594 32.828125 48.585938 31.5 C 48.589844 31.117188 48.59375 30.730469 48.597656 30.339844 C 48.609375 29.945312 48.621094 29.546875 48.636719 29.136719 C 48.644531 28.738281 48.648438 28.335938 48.65625 27.917969 C 48.671875 26.929688 48.691406 25.9375 48.71875 24.945312 C 49.726562 24.609375 50.421875 24.570312 51.46875 24.601562 Z M 51.46875 24.601562 "/>
<path style=" stroke:none;fill-rule:nonzero;fill:rgb(25.490198%,25.490198%,25.490198%);fill-opacity:1;" d="M 152.679688 46.28125 C 153.929688 46.828125 155.144531 47.4375 155.769531 48.691406 C 156.011719 51.136719 156.011719 51.136719 154.996094 52.433594 C 153.007812 53.980469 151.386719 54.089844 148.90625 53.851562 C 147.765625 53.398438 147.332031 52.996094 146.566406 52.046875 C 146.027344 50.785156 145.925781 50.050781 146.160156 48.691406 C 148.019531 46.519531 149.878906 45.90625 152.679688 46.28125 Z M 152.679688 46.28125 "/>
<path style=" stroke:none;fill-rule:nonzero;fill:rgb(93.333334%,93.333334%,93.333334%);fill-opacity:1;" d="M 172 24.535156 C 172.390625 24.53125 172.777344 24.527344 173.175781 24.523438 C 174.273438 24.601562 175.027344 24.820312 176.011719 25.289062 C 175.898438 25.742188 175.785156 26.199219 175.667969 26.667969 C 174.085938 26.667969 172.496094 26.667969 170.863281 26.667969 C 170.863281 27.234375 170.863281 27.800781 170.863281 28.386719 C 171.140625 28.449219 171.417969 28.511719 171.707031 28.574219 C 172.074219 28.660156 172.441406 28.75 172.820312 28.835938 C 173.179688 28.921875 173.542969 29.007812 173.914062 29.09375 C 174.992188 29.421875 175.792969 29.777344 176.695312 30.449219 C 177.0625 31.613281 177.0625 31.613281 177.042969 32.859375 C 176.320312 34.1875 175.410156 34.90625 173.996094 35.441406 C 171.523438 36.027344 169.3125 35.769531 167.09375 34.582031 C 167.207031 34.015625 167.316406 33.449219 167.433594 32.859375 C 167.628906 32.910156 167.824219 32.957031 168.023438 33.011719 C 170.050781 33.5 171.921875 33.882812 173.953125 33.203125 C 173.773438 32.339844 173.773438 32.339844 173.265625 31.480469 C 172.257812 31.097656 172.257812 31.097656 171.082031 30.945312 C 169.417969 30.671875 168.480469 30.449219 167.433594 29.078125 C 167.242188 27.890625 167.242188 27.890625 167.433594 26.667969 C 168.902344 24.882812 169.753906 24.546875 172 24.535156 Z M 172 24.535156 "/>
<path style=" stroke:none;fill-rule:nonzero;fill:rgb(93.333334%,93.333334%,93.333334%);fill-opacity:1;" d="M 21.957031 21.160156 C 22.976562 21.160156 23.996094 21.160156 25.046875 21.160156 C 25.046875 25.132812 25.046875 29.109375 25.046875 33.203125 C 27.199219 33.203125 29.347656 33.203125 31.566406 33.203125 C 31.453125 33.886719 31.339844 34.570312 31.222656 35.269531 C 28.164062 35.269531 25.105469 35.269531 21.957031 35.269531 C 21.957031 30.613281 21.957031 25.957031 21.957031 21.160156 Z M 21.957031 21.160156 "/>
<path style=" stroke:none;fill-rule:nonzero;fill:rgb(20.392157%,68.627453%,61.960787%);fill-opacity:1;" d="M 59.621094 41.078125 C 59.957031 41.078125 60.289062 41.078125 60.636719 41.074219 C 61.191406 41.078125 61.191406 41.078125 61.757812 41.078125 C 62.144531 41.078125 62.535156 41.078125 62.933594 41.078125 C 64.21875 41.078125 65.503906 41.082031 66.789062 41.085938 C 67.683594 41.085938 68.574219 41.085938 69.464844 41.085938 C 71.574219 41.085938 73.675781 41.089844 75.785156 41.09375 C 78.183594 41.101562 80.582031 41.101562 82.980469 41.105469 C 87.917969 41.109375 92.851562 41.113281 97.78125 41.121094 C 97.78125 41.234375 97.78125 41.347656 97.78125 41.460938 C 96.425781 41.460938 95.066406 41.460938 93.667969 41.460938 C 93.667969 41.691406 93.667969 41.917969 93.667969 42.152344 C 91.089844 42.429688 88.554688 42.542969 85.96875 42.535156 C 85.597656 42.535156 85.222656 42.535156 84.839844 42.535156 C 83.625 42.535156 82.410156 42.53125 81.195312 42.53125 C 80.34375 42.53125 79.496094 42.527344 78.648438 42.527344 C 76.425781 42.527344 74.203125 42.523438 71.980469 42.519531 C 69.707031 42.515625 67.433594 42.515625 65.164062 42.515625 C 60.710938 42.511719 56.261719 42.503906 51.808594 42.496094 C 51.808594 42.382812 51.808594 42.269531 51.808594 42.152344 C 53.507812 42.152344 55.203125 42.152344 56.953125 42.152344 C 56.953125 41.921875 56.953125 41.699219 56.953125 41.460938 C 57.953125 41.128906 58.582031 41.074219 59.621094 41.078125 Z M 59.621094 41.078125 "/>
<path style=" stroke:none;fill-rule:nonzero;fill:rgb(94.901961%,94.901961%,94.901961%);fill-opacity:1;" d="M 64.160156 24.601562 C 66.90625 29.914062 66.90625 29.914062 66.90625 32.171875 C 67.132812 32.171875 67.355469 32.171875 67.59375 32.171875 C 67.625 31.828125 67.660156 31.480469 67.699219 31.128906 C 67.902344 29.703125 68.394531 28.503906 68.984375 27.207031 C 69.082031 26.984375 69.179688 26.765625 69.277344 26.542969 C 69.511719 26.007812 69.753906 25.476562 69.992188 24.945312 C 70.898438 24.945312 71.804688 24.945312 72.738281 24.945312 C 72.527344 26.222656 72.167969 27.28125 71.621094 28.453125 C 71.472656 28.785156 71.320312 29.117188 71.160156 29.457031 C 70.921875 29.96875 70.921875 29.96875 70.679688 30.496094 C 70.363281 31.175781 70.050781 31.855469 69.738281 32.542969 C 69.59375 32.839844 69.457031 33.140625 69.3125 33.453125 C 68.933594 34.265625 68.933594 34.265625 68.621094 35.269531 C 66.574219 35.4375 66.574219 35.4375 65.875 35.269531 C 64.992188 34.09375 64.527344 32.796875 64.03125 31.421875 C 63.367188 29.644531 62.617188 27.96875 61.730469 26.296875 C 61.414062 25.632812 61.414062 25.632812 61.414062 24.945312 C 62.417969 24.609375 63.117188 24.570312 64.160156 24.601562 Z M 64.160156 24.601562 "/>
<path style=" stroke:none;fill-rule:nonzero;fill:rgb(94.117647%,94.117647%,94.117647%);fill-opacity:1;" d="M 140.671875 21.847656 C 140.671875 22.871094 140.671875 23.890625 140.671875 24.945312 C 141.578125 24.945312 142.484375 24.945312 143.417969 24.945312 C 143.304688 25.398438 143.191406 25.851562 143.074219 26.320312 C 142.167969 26.320312 141.261719 26.320312 140.328125 26.320312 C 140.378906 27.460938 140.425781 28.601562 140.480469 29.742188 C 140.492188 30.066406 140.507812 30.394531 140.519531 30.726562 C 140.539062 31.191406 140.539062 31.191406 140.566406 31.664062 C 140.578125 31.949219 140.589844 32.238281 140.601562 32.535156 C 140.601562 33.207031 140.601562 33.207031 141.015625 33.550781 C 141.8125 33.675781 142.617188 33.789062 143.417969 33.890625 C 143.417969 34.347656 143.417969 34.800781 143.417969 35.269531 C 142.703125 35.316406 141.988281 35.347656 141.273438 35.375 C 140.875 35.394531 140.476562 35.417969 140.070312 35.4375 C 138.957031 35.269531 138.957031 35.269531 138.132812 34.625 C 137.339844 33.070312 137.433594 31.710938 137.5 30 C 137.503906 29.679688 137.511719 29.359375 137.515625 29.027344 C 137.53125 28.242188 137.558594 27.453125 137.585938 26.667969 C 137.128906 26.667969 136.679688 26.667969 136.210938 26.667969 C 136.210938 26.097656 136.210938 25.53125 136.210938 24.945312 C 136.664062 24.945312 137.117188 24.945312 137.585938 24.945312 C 137.585938 24.152344 137.585938 23.355469 137.585938 22.539062 C 138.742188 22.019531 139.367188 21.847656 140.671875 21.847656 Z M 140.671875 21.847656 "/>
<path style=" stroke:none;fill-rule:nonzero;fill:rgb(97.254902%,97.254902%,97.254902%);fill-opacity:1;" d="M 162.632812 20.46875 C 162.746094 24.789062 162.855469 29.101562 162.972656 33.550781 C 163.316406 33.664062 163.652344 33.777344 164.003906 33.890625 C 164.003906 34.347656 164.003906 34.800781 164.003906 35.269531 C 163.511719 35.304688 163.019531 35.335938 162.523438 35.355469 C 162.25 35.371094 161.976562 35.386719 161.691406 35.402344 C 160.914062 35.269531 160.914062 35.269531 160.355469 34.761719 C 159.671875 33.503906 159.757812 32.292969 159.785156 30.898438 C 159.785156 30.609375 159.785156 30.320312 159.789062 30.023438 C 159.796875 29.105469 159.808594 28.1875 159.824219 27.265625 C 159.828125 26.644531 159.832031 26.019531 159.835938 25.394531 C 159.847656 23.871094 159.863281 22.34375 159.882812 20.816406 C 160.914062 20.46875 160.914062 20.46875 162.632812 20.46875 Z M 162.632812 20.46875 "/>
<path style=" stroke:none;fill-rule:nonzero;fill:rgb(91.764706%,91.764706%,91.764706%);fill-opacity:1;" d="M 78.570312 24.601562 C 78.796875 24.941406 79.023438 25.28125 79.257812 25.632812 C 79.4375 25.464844 79.609375 25.292969 79.792969 25.117188 C 80.90625 24.429688 81.746094 24.527344 83.027344 24.601562 C 82.859375 25.347656 82.6875 25.976562 82.34375 26.667969 C 81.546875 26.90625 80.746094 27.136719 79.945312 27.351562 C 79.378906 27.921875 79.519531 28.605469 79.492188 29.386719 C 79.476562 29.730469 79.464844 30.066406 79.449219 30.417969 C 79.4375 30.777344 79.417969 31.136719 79.40625 31.507812 C 79.390625 31.867188 79.378906 32.222656 79.363281 32.59375 C 79.324219 33.488281 79.289062 34.375 79.257812 35.269531 C 78.238281 35.269531 77.21875 35.269531 76.167969 35.269531 C 76.167969 31.976562 76.167969 28.679688 76.167969 25.289062 C 77.542969 24.601562 77.542969 24.601562 78.570312 24.601562 Z M 78.570312 24.601562 "/>
<path style=" stroke:none;fill-rule:nonzero;fill:rgb(27.058825%,27.058825%,27.058825%);fill-opacity:1;" d="M 128.296875 26.128906 C 129.347656 26.320312 129.347656 26.320312 130.335938 26.925781 C 131.4375 28.613281 131.398438 30.210938 131.066406 32.171875 C 130.335938 33.292969 130.335938 33.292969 129.347656 33.890625 C 128.296875 34.109375 128.296875 34.109375 127.292969 33.890625 C 126.355469 32.960938 125.953125 32.386719 125.738281 31.074219 C 125.738281 30.691406 125.742188 30.308594 125.746094 29.914062 C 125.742188 29.53125 125.738281 29.144531 125.738281 28.75 C 126.015625 27.144531 126.707031 26.433594 128.296875 26.128906 Z M 128.296875 26.128906 "/>
<path style=" stroke:none;fill-rule:nonzero;fill:rgb(24.313726%,24.313726%,24.313726%);fill-opacity:1;" d="M 39.285156 26.128906 C 40.6875 26.351562 41.007812 26.585938 41.859375 27.699219 C 42.042969 28.75 42.042969 28.75 42.03125 29.914062 C 42.035156 30.296875 42.039062 30.679688 42.042969 31.074219 C 41.820312 32.386719 41.421875 32.964844 40.488281 33.890625 C 39.457031 34.109375 39.457031 34.109375 38.425781 33.890625 C 37.15625 32.582031 36.65625 31.628906 36.605469 29.828125 C 36.621094 28.621094 36.699219 28.070312 37.246094 26.964844 C 38.085938 26.320312 38.085938 26.320312 39.285156 26.128906 Z M 39.285156 26.128906 "/>
<path style=" stroke:none;fill-rule:nonzero;fill:rgb(74.117649%,74.117649%,74.117649%);fill-opacity:1;" d="M 136.898438 46.28125 C 140.671875 46.28125 140.671875 46.28125 141.765625 46.667969 C 142.386719 47.3125 142.386719 47.3125 142.492188 48.410156 C 142.460938 48.730469 142.425781 49.050781 142.386719 49.378906 C 141.707031 49.71875 141.707031 49.71875 141.015625 50.070312 C 141.1875 50.28125 141.363281 50.496094 141.542969 50.722656 C 141.765625 51.003906 141.984375 51.285156 142.21875 51.574219 C 142.550781 51.992188 142.550781 51.992188 142.894531 52.421875 C 143.417969 53.164062 143.417969 53.164062 143.417969 53.851562 C 142.433594 53.824219 141.863281 53.671875 141.167969 52.960938 C 140.8125 52.53125 140.472656 52.089844 140.132812 51.648438 C 139.636719 51.003906 139.636719 51.003906 138.617188 50.753906 C 138.617188 51.777344 138.617188 52.800781 138.617188 53.851562 C 138.046875 53.851562 137.480469 53.851562 136.898438 53.851562 C 136.898438 51.351562 136.898438 48.855469 136.898438 46.28125 Z M 136.898438 46.28125 "/>
<path style=" stroke:none;fill-rule:nonzero;fill:rgb(75.686276%,75.686276%,75.686276%);fill-opacity:1;" d="M 171.207031 46.28125 C 174.984375 46.28125 174.984375 46.28125 176.074219 46.839844 C 176.695312 47.660156 176.695312 47.660156 176.890625 48.691406 C 176.695312 49.722656 176.695312 49.722656 176.164062 50.542969 C 175.042969 51.289062 174.238281 51.203125 172.925781 51.101562 C 172.925781 52.007812 172.925781 52.914062 172.925781 53.851562 C 172.359375 53.851562 171.792969 53.851562 171.207031 53.851562 C 171.207031 51.351562 171.207031 48.855469 171.207031 46.28125 Z M 171.207031 46.28125 "/>
<path style=" stroke:none;fill-rule:nonzero;fill:rgb(90.196079%,90.196079%,90.196079%);fill-opacity:1;" d="M 152.679688 46.28125 C 153.929688 46.828125 155.144531 47.4375 155.769531 48.691406 C 156.011719 51.136719 156.011719 51.136719 154.996094 52.433594 C 153.007812 53.980469 151.386719 54.089844 148.90625 53.851562 C 147.765625 53.398438 147.332031 52.996094 146.566406 52.046875 C 146.027344 50.785156 145.925781 50.050781 146.160156 48.691406 C 148.019531 46.519531 149.878906 45.90625 152.679688 46.28125 Z M 147.53125 49.035156 C 147.246094 50.070312 147.246094 50.070312 147.53125 51.101562 C 148.15625 52.152344 148.15625 52.152344 149.25 52.820312 C 150.765625 53.109375 151.964844 52.992188 153.367188 52.347656 C 154.335938 51.558594 154.382812 51.203125 154.542969 49.9375 C 154.519531 48.640625 154.519531 48.640625 153.558594 47.851562 C 151.1875 46.808594 149.101562 46.703125 147.53125 49.035156 Z M 147.53125 49.035156 "/>
<path style=" stroke:none;fill-rule:nonzero;fill:rgb(88.627452%,88.627452%,88.627452%);fill-opacity:1;" d="M 132.4375 46.625 C 132.4375 46.964844 132.4375 47.308594 132.4375 47.660156 C 132.132812 47.648438 131.828125 47.636719 131.507812 47.621094 C 131.109375 47.613281 130.707031 47.601562 130.292969 47.59375 C 129.894531 47.582031 129.5 47.570312 129.089844 47.558594 C 127.886719 47.667969 127.417969 47.808594 126.605469 48.691406 C 126.402344 49.355469 126.402344 49.355469 126.453125 50.070312 C 126.453125 50.300781 126.453125 50.535156 126.453125 50.777344 C 126.652344 51.660156 126.898438 51.953125 127.636719 52.472656 C 128.570312 52.675781 128.570312 52.675781 129.585938 52.710938 C 129.925781 52.734375 130.269531 52.757812 130.617188 52.78125 C 130.878906 52.792969 131.140625 52.808594 131.40625 52.820312 C 131.40625 51.910156 131.40625 51.003906 131.40625 50.070312 C 131.972656 50.070312 132.539062 50.070312 133.125 50.070312 C 133.125 51.089844 133.125 52.113281 133.125 53.164062 C 131.09375 54 129.164062 54.121094 127.03125 53.636719 C 125.914062 52.953125 125.277344 52.1875 124.546875 51.101562 C 124.304688 49.796875 124.417969 49.253906 125.082031 48.109375 C 127.140625 46.152344 129.792969 45.742188 132.4375 46.625 Z M 132.4375 46.625 "/>
<path style=" stroke:none;fill-rule:nonzero;fill:rgb(89.019608%,89.019608%,89.019608%);fill-opacity:1;" d="M 159.542969 46.28125 C 159.996094 46.28125 160.449219 46.28125 160.914062 46.28125 C 160.933594 46.667969 160.960938 47.050781 160.980469 47.453125 C 161.007812 47.957031 161.035156 48.460938 161.066406 48.972656 C 161.082031 49.226562 161.09375 49.476562 161.105469 49.738281 C 161.171875 50.835938 161.257812 51.773438 161.601562 52.820312 C 162.101562 52.773438 162.601562 52.722656 163.105469 52.667969 C 163.378906 52.640625 163.660156 52.613281 163.945312 52.585938 C 164.703125 52.515625 164.703125 52.515625 165.375 52.132812 C 165.488281 50.199219 165.601562 48.269531 165.722656 46.28125 C 166.171875 46.28125 166.625 46.28125 167.09375 46.28125 C 167.144531 47.222656 167.1875 48.15625 167.21875 49.097656 C 167.246094 49.5 167.246094 49.5 167.269531 49.902344 C 167.320312 51.804688 167.320312 51.804688 166.6875 52.699219 C 165.574219 53.714844 164.609375 54.089844 163.125 54.066406 C 162.65625 54.074219 162.65625 54.074219 162.179688 54.082031 C 160.839844 53.75 160.347656 53.25 159.542969 52.132812 C 159.34375 51.109375 159.378906 50.132812 159.4375 49.097656 C 159.445312 48.828125 159.453125 48.554688 159.460938 48.277344 C 159.476562 47.609375 159.511719 46.945312 159.542969 46.28125 Z M 159.542969 46.28125 "/>
<path style=" stroke:none;fill-rule:nonzero;fill:rgb(98.823529%,98.823529%,98.823529%);fill-opacity:1;" d="M 137.238281 46.625 C 141.226562 46.539062 141.226562 46.539062 142.386719 47.3125 C 142.492188 48.347656 142.492188 48.347656 142.386719 49.378906 C 142.160156 49.605469 141.9375 49.832031 141.699219 50.070312 C 141.363281 49.953125 141.019531 49.839844 140.671875 49.722656 C 140.671875 49.15625 140.671875 48.589844 140.671875 48 C 139.882812 47.773438 139.085938 47.550781 138.269531 47.3125 C 138.269531 48.222656 138.269531 49.132812 138.269531 50.070312 C 138.726562 50.179688 139.175781 50.292969 139.644531 50.410156 C 139.1875 50.410156 138.738281 50.410156 138.269531 50.410156 C 138.269531 51.433594 138.269531 52.453125 138.269531 53.507812 C 137.933594 53.507812 137.589844 53.507812 137.238281 53.507812 C 137.238281 51.238281 137.238281 48.964844 137.238281 46.625 Z M 137.238281 46.625 "/>
<path style=" stroke:none;fill-rule:nonzero;fill:rgb(30.980393%,30.980393%,30.980393%);fill-opacity:1;" d="M 90.019531 26.195312 C 91.265625 26.320312 91.265625 26.320312 92.101562 26.925781 C 92.636719 27.699219 92.636719 27.699219 92.636719 29.078125 C 91.050781 29.078125 89.46875 29.078125 87.835938 29.078125 C 88.28125 26.386719 88.28125 26.386719 90.019531 26.195312 Z M 90.019531 26.195312 "/>
<path style=" stroke:none;fill-rule:nonzero;fill:rgb(90.588236%,90.588236%,90.588236%);fill-opacity:1;" d="M 165.722656 46.28125 C 166.171875 46.28125 166.625 46.28125 167.09375 46.28125 C 167.128906 47.226562 167.15625 48.171875 167.179688 49.117188 C 167.195312 49.523438 167.195312 49.523438 167.210938 49.929688 C 167.234375 51.214844 167.234375 51.914062 166.515625 53.003906 C 165.558594 53.613281 165.035156 53.652344 163.917969 53.59375 C 163.613281 53.582031 163.308594 53.570312 162.988281 53.558594 C 162.644531 53.535156 162.644531 53.535156 162.289062 53.507812 C 162.289062 53.394531 162.289062 53.28125 162.289062 53.164062 C 162.859375 53.003906 162.859375 53.003906 163.445312 52.839844 C 164.617188 52.535156 164.617188 52.535156 165.375 52.132812 C 165.488281 50.199219 165.601562 48.269531 165.722656 46.28125 Z M 165.722656 46.28125 "/>
<path style=" stroke:none;fill-rule:nonzero;fill:rgb(29.803923%,29.803923%,29.803923%);fill-opacity:1;" d="M 151.992188 26.320312 C 152.8125 26.925781 152.8125 26.925781 153.367188 27.699219 C 153.367188 28.152344 153.367188 28.609375 153.367188 29.078125 C 151.78125 29.078125 150.199219 29.078125 148.5625 29.078125 C 148.90625 27.351562 148.90625 27.351562 149.316406 26.730469 C 150.253906 26.113281 150.894531 26.164062 151.992188 26.320312 Z M 151.992188 26.320312 "/>
<path style=" stroke:none;fill-rule:nonzero;fill:rgb(98.431373%,98.431373%,98.431373%);fill-opacity:1;" d="M 171.554688 46.625 C 171.890625 46.625 172.234375 46.625 172.582031 46.625 C 172.582031 47.875 172.582031 49.121094 172.582031 50.410156 C 173.371094 50.410156 174.164062 50.410156 174.984375 50.410156 C 174.984375 50.527344 174.984375 50.640625 174.984375 50.753906 C 174.304688 50.867188 173.625 50.980469 172.925781 51.101562 C 172.808594 51.894531 172.695312 52.691406 172.582031 53.507812 C 172.242188 53.507812 171.902344 53.507812 171.554688 53.507812 C 171.554688 51.238281 171.554688 48.964844 171.554688 46.625 Z M 171.554688 46.625 "/>
<path style=" stroke:none;fill-rule:nonzero;fill:rgb(90.980393%,90.980393%,90.980393%);fill-opacity:1;" d="M 147.53125 48 C 147.878906 49.035156 147.878906 49.035156 147.8125 50.023438 C 147.894531 51.367188 148.351562 51.859375 149.25 52.820312 C 149.136719 53.050781 149.023438 53.273438 148.90625 53.507812 C 147.84375 53.191406 147.285156 52.933594 146.566406 52.066406 C 146.070312 50.886719 146.085938 49.957031 146.160156 48.691406 C 146.617188 48.460938 147.070312 48.238281 147.53125 48 Z M 147.53125 48 "/>
<path style=" stroke:none;fill-rule:nonzero;fill:rgb(79.215688%,79.215688%,79.215688%);fill-opacity:1;" d="M 131.40625 50.070312 C 131.972656 50.070312 132.539062 50.070312 133.125 50.070312 C 133.125 51.089844 133.125 52.113281 133.125 53.164062 C 131.480469 53.644531 129.984375 53.398438 128.320312 53.164062 C 128.320312 53.050781 128.320312 52.9375 128.320312 52.820312 C 129.339844 52.820312 130.359375 52.820312 131.40625 52.820312 C 131.40625 51.910156 131.40625 51.003906 131.40625 50.070312 Z M 131.40625 50.070312 "/>
<path style=" stroke:none;fill-rule:nonzero;fill:rgb(25.098041%,25.098041%,25.098041%);fill-opacity:1;" d="M 172.925781 47.3125 C 173.738281 47.273438 173.738281 47.273438 174.636719 47.3125 C 175.324219 48 175.324219 48 175.390625 48.882812 C 175.324219 49.722656 175.324219 49.722656 174.984375 50.070312 C 174.296875 50.082031 173.613281 50.082031 172.925781 50.070312 C 172.925781 49.160156 172.925781 48.25 172.925781 47.3125 Z M 172.925781 47.3125 "/>
<path style=" stroke:none;fill-rule:nonzero;fill:rgb(28.235295%,28.235295%,28.235295%);fill-opacity:1;" d="M 138.269531 47.3125 C 139.257812 47.273438 139.257812 47.273438 140.328125 47.3125 C 141.015625 48 141.015625 48 141.015625 49.378906 C 140.085938 49.84375 139.296875 49.746094 138.269531 49.722656 C 138.269531 48.925781 138.269531 48.132812 138.269531 47.3125 Z M 138.269531 47.3125 "/>
<path style=" stroke:none;fill-rule:nonzero;fill:rgb(90.980393%,90.980393%,90.980393%);fill-opacity:1;" d="M 142.386719 47.3125 C 142.429688 48.304688 142.429688 48.304688 142.386719 49.378906 C 142.160156 49.605469 141.9375 49.832031 141.699219 50.070312 C 141.363281 49.953125 141.019531 49.839844 140.671875 49.722656 C 140.671875 49.15625 140.671875 48.589844 140.671875 48 C 139.882812 47.773438 139.085938 47.550781 138.269531 47.3125 C 138.269531 47.199219 138.269531 47.089844 138.269531 46.96875 C 139.800781 46.574219 140.964844 46.597656 142.386719 47.3125 Z M 142.386719 47.3125 "/>
<path style=" stroke:none;fill-rule:nonzero;fill:rgb(82.352942%,82.352942%,82.352942%);fill-opacity:1;" d="M 151.007812 46.261719 C 151.320312 46.265625 151.636719 46.265625 151.957031 46.269531 C 152.316406 46.277344 152.316406 46.277344 152.679688 46.28125 C 152.34375 46.789062 152.34375 46.789062 151.992188 47.3125 C 151.308594 47.421875 150.621094 47.53125 149.925781 47.585938 C 149.175781 47.644531 149.175781 47.644531 148.21875 48 C 148.105469 48.230469 147.992188 48.457031 147.878906 48.691406 C 147.425781 48.578125 146.972656 48.460938 146.507812 48.347656 C 148.988281 46.234375 148.988281 46.234375 151.007812 46.261719 Z M 151.007812 46.261719 "/>
<path style=" stroke:none;fill-rule:nonzero;fill:rgb(83.529413%,83.529413%,83.529413%);fill-opacity:1;" d="M 126.945312 46.625 C 127.636719 46.96875 127.636719 46.96875 127.976562 47.660156 C 127.757812 47.785156 127.539062 47.914062 127.3125 48.046875 C 126.386719 48.890625 126.371094 49.53125 126.261719 50.753906 C 126.148438 50.753906 126.035156 50.753906 125.917969 50.753906 C 125.808594 50.1875 125.695312 49.621094 125.574219 49.035156 C 125.347656 49.035156 125.125 49.035156 124.886719 49.035156 C 125.367188 47.875 125.914062 47.316406 126.945312 46.625 Z M 126.945312 46.625 "/>
<path style=" stroke:none;fill-rule:nonzero;fill:rgb(46.666667%,46.666667%,46.666667%);fill-opacity:1;" d="M 40.488281 26.320312 C 39.46875 26.851562 38.472656 27.265625 37.398438 27.699219 C 37.285156 28.945312 37.171875 30.199219 37.054688 31.480469 C 36.941406 31.480469 36.828125 31.480469 36.710938 31.480469 C 36.503906 28.464844 36.503906 28.464844 37.246094 26.964844 C 38.363281 26.105469 39.117188 26.191406 40.488281 26.320312 Z M 40.488281 26.320312 "/>
<path style=" stroke:none;fill-rule:nonzero;fill:rgb(76.078433%,76.078433%,76.078433%);fill-opacity:1;" d="M 160.230469 52.820312 C 160.902344 52.792969 161.574219 52.773438 162.246094 52.753906 C 162.808594 52.738281 162.808594 52.738281 163.378906 52.71875 C 163.699219 52.75 164.019531 52.785156 164.34375 52.820312 C 164.574219 53.160156 164.800781 53.5 165.03125 53.851562 C 164.425781 53.878906 163.816406 53.902344 163.210938 53.917969 C 162.871094 53.929688 162.535156 53.941406 162.183594 53.953125 C 161.261719 53.851562 161.261719 53.851562 160.621094 53.332031 C 160.492188 53.164062 160.363281 52.996094 160.230469 52.820312 Z M 160.230469 52.820312 "/>
<path style=" stroke:none;fill-rule:nonzero;fill:rgb(85.882354%,85.882354%,85.882354%);fill-opacity:1;" d="M 148.90625 52.820312 C 150.152344 52.933594 151.398438 53.050781 152.679688 53.164062 C 152.679688 53.390625 152.679688 53.621094 152.679688 53.851562 C 151.433594 53.851562 150.191406 53.851562 148.90625 53.851562 C 148.90625 53.515625 148.90625 53.171875 148.90625 52.820312 Z M 148.90625 52.820312 "/>
<path style=" stroke:none;fill-rule:nonzero;fill:rgb(34.509805%,34.509805%,34.509805%);fill-opacity:1;" d="M 71.363281 28.042969 C 71.59375 28.15625 71.816406 28.269531 72.054688 28.386719 C 71.671875 29.585938 71.277344 30.71875 70.679688 31.828125 C 70.453125 31.828125 70.226562 31.828125 69.992188 31.828125 C 70.15625 31.328125 70.324219 30.824219 70.484375 30.320312 C 70.578125 30.042969 70.667969 29.761719 70.761719 29.476562 C 71.023438 28.730469 71.023438 28.730469 71.363281 28.042969 Z M 71.363281 28.042969 "/>
<path style=" stroke:none;fill-rule:nonzero;fill:rgb(83.529413%,83.529413%,83.529413%);fill-opacity:1;" d="M 148.21875 24.945312 C 148.449219 25.058594 148.671875 25.171875 148.90625 25.289062 C 148 26.199219 147.097656 27.109375 146.160156 28.042969 C 146.160156 27.011719 146.160156 27.011719 147 26.105469 C 147.289062 25.835938 147.578125 25.566406 147.878906 25.289062 C 147.992188 25.175781 148.101562 25.0625 148.21875 24.945312 Z M 148.21875 24.945312 "/>
</g>
</svg>
